<svg width="18" height="18" viewBox="0 0 18 18" fill="none" xmlns="http://www.w3.org/2000/svg">
<path d="M16.25 0.25H1.21094C0.546875 0.25 0 0.83594 0 1.53906V16.5C0 17.2031 0.546875 17.75 1.21094 17.75H16.25C16.9141 17.75 17.5 17.2031 17.5 16.5V1.53906C17.5 0.83594 16.9141 0.25 16.25 0.25ZM5.27344 15.25H2.69531V6.92969H5.27344V15.25ZM3.98438 5.75781C3.125 5.75781 2.46094 5.09375 2.46094 4.27344C2.46094 3.45312 3.125 2.75 3.98438 2.75C4.80469 2.75 5.46875 3.45312 5.46875 4.27344C5.46875 5.09375 4.80469 5.75781 3.98438 5.75781ZM15 15.25H12.3828V11.1875C12.3828 10.25 12.3828 9 11.0547 9C9.6875 9 9.49219 10.0547 9.49219 11.1484V15.25H6.91406V6.92969H9.375V8.0625H9.41406C9.76562 7.39844 10.625 6.69531 11.875 6.69531C14.4922 6.69531 15 8.45312 15 10.6797V15.25Z" fill="#202124"/>
</svg>
