<svg width="12" height="13" viewBox="0 0 12 13" fill="none" xmlns="http://www.w3.org/2000/svg">
<path d="M0 6.21045C0 6.40936 0.0790176 6.60013 0.21967 6.74078C0.360322 6.88143 0.551088 6.96045 0.75 6.96045H5.125C5.15815 6.96045 5.18995 6.97362 5.21339 6.99706C5.23683 7.0205 5.25 7.0523 5.25 7.08545V11.4604C5.25 11.6594 5.32902 11.8501 5.46967 11.9908C5.61032 12.1314 5.80109 12.2104 6 12.2104C6.19891 12.2104 6.38968 12.1314 6.53033 11.9908C6.67098 11.8501 6.75 11.6594 6.75 11.4604V7.08545C6.75 7.0523 6.76317 7.0205 6.78661 6.99706C6.81005 6.97362 6.84185 6.96045 6.875 6.96045H11.25C11.4489 6.96045 11.6397 6.88143 11.7803 6.74078C11.921 6.60013 12 6.40936 12 6.21045C12 6.01154 11.921 5.82077 11.7803 5.68012C11.6397 5.53947 11.4489 5.46045 11.25 5.46045H6.875C6.84185 5.46045 6.81005 5.44728 6.78661 5.42384C6.76317 5.4004 6.75 5.3686 6.75 5.33545V0.960449C6.75 0.761537 6.67098 0.570771 6.53033 0.430119C6.38968 0.289467 6.19891 0.210449 6 0.210449C5.80109 0.210449 5.61032 0.289467 5.46967 0.430119C5.32902 0.570771 5.25 0.761537 5.25 0.960449V5.33545C5.25 5.3686 5.23683 5.4004 5.21339 5.42384C5.18995 5.44728 5.15815 5.46045 5.125 5.46045H0.75C0.551088 5.46045 0.360322 5.53947 0.21967 5.68012C0.0790176 5.82077 0 6.01154 0 6.21045Z" fill="#535965"/>
</svg>
