<svg width="20" height="18" viewBox="0 0 20 18" fill="none" xmlns="http://www.w3.org/2000/svg">
<path d="M17.9297 4.9375C18.7109 4.35156 19.4141 3.64844 19.9609 2.82812C19.2578 3.14062 18.4375 3.375 17.6172 3.45312C18.4766 2.94531 19.1016 2.16406 19.4141 1.1875C18.6328 1.65625 17.7344 2.00781 16.8359 2.20312C16.0547 1.38281 15 0.914062 13.8281 0.914062C11.5625 0.914062 9.72656 2.75 9.72656 5.01562C9.72656 5.32812 9.76562 5.64062 9.84375 5.95312C6.44531 5.75781 3.39844 4.11719 1.36719 1.65625C1.01562 2.24219 0.820312 2.94531 0.820312 3.72656C0.820312 5.13281 1.52344 6.38281 2.65625 7.125C1.99219 7.08594 1.32812 6.92969 0.78125 6.61719V6.65625C0.78125 8.64844 2.1875 10.2891 4.0625 10.6797C3.75 10.7578 3.35938 10.8359 3.00781 10.8359C2.73438 10.8359 2.5 10.7969 2.22656 10.7578C2.73438 12.3984 4.25781 13.5703 6.05469 13.6094C4.64844 14.7031 2.89062 15.3672 0.976562 15.3672C0.625 15.3672 0.3125 15.3281 0 15.2891C1.79688 16.4609 3.94531 17.125 6.28906 17.125C13.8281 17.125 17.9297 10.9141 17.9297 5.48438C17.9297 5.28906 17.9297 5.13281 17.9297 4.9375Z" fill="#202124"/>
</svg>
